<svg xmlns="http://www.w3.org/2000/svg" width="250" height="250" fill="none" viewBox="0 0 250 250">
<!-- SVG created with Arrow, by QuiverAI (https://quiver.ai) -->
  <path d="m122.8 152.3c15.61-23.25 47.84-64.82 47.84-86.67 0-26.26-21.31-50.61-47.94-50.61h-0.52c-26.63 0-47.94 22.08-47.94 50.31 0 22.15 30.59 62.8 48.56 86.97zm-0.36-112.7c13.7 0 24.57 12.4 24.57 25.47 0 13.08-11.08 24.31-24.57 24.31s-24.09-10.93-24.09-24.31 10.65-25.47 24.09-25.47z" fill="url(#paint0_linear_1_60)"/>
  <path d="m151 122.9-5.55 8.37 23.31 11.65 19.16-0.15 0.31-0.31-37.23-19.56z" fill="url(#paint1_linear_1_60)"/>
  <path d="m209.9 153.7 20.74 19.46 8.52-3.98-29.26-15.48z" fill="url(#paint2_linear_1_60)"/>
  <path d="m151.5 156 0.2-0.97c0.1-4.97 1.5-4.97 5.94-10.14l-15.3-9.19-19.44 28.28-19.16-27.77-24.43 12.93 43.18 23.32 29.01-16.46z" fill="url(#paint3_linear_1_60)"/>
  <path d="m94.15 123.1-87.15 45.97 115.8 62.47 45.53-24.37-7.8-7.38-37.47 21.24-95.63-51.81 72.81-38.56-6.07-7.56z" fill="url(#paint4_linear_1_60)"/>
  <path d="m151.5 164.3-60.44 32.01 31.95 16.77 32.88-17.38c-2.9-2.92-5.79-5.84-5.79-9.57l1.4-21.83z" fill="url(#paint5_linear_1_60)"/>
  <path d="m40.9 169.8 43.7 22.86 31.79-16.97-43.85-23.64-31.64 17.75z" fill="url(#paint6_linear_1_60)"/>
  <path d="m240.5 193.2-43.07-43.33c-1.19-0.92-2.18-1.23-3.47-1.23h-30.02c-4.44 0-5.83 3.03-6.19 6.46l-0.88 29.92c-0.1 2.3 0.47 3.93 2.17 5.78l42.21 41.15c3.1 3.13 6.92 1.28 8.32-0.51l30.62-30.42c2.74-2.71 2.95-5.63 0.31-7.82zm-67.16-22.75c-4.69-0.62-7.18-6.25-4.12-9.78 3.87-4.55 10.99-1.78 10.99 4.05 0 3.63-3 6.14-6.87 5.73z" fill="url(#paint7_linear_1_60)"/>
  <defs>
    <linearGradient id="paint0_linear_1_60" x1="85.98" x2="155.6" y1="25.46" y2="138.3" gradientUnits="userSpaceOnUse">
      <stop stop-color="#82D46A" offset="0"/>
      <stop stop-color="#54B675" offset=".4844"/>
      <stop stop-color="#1184AB" offset="1"/>
    </linearGradient>
    <linearGradient id="paint1_linear_1_60" x1="148.1" x2="158.8" y1="123.8" y2="151.8" gradientUnits="userSpaceOnUse">
      <stop stop-color="#54B675" offset="0"/>
      <stop stop-color="#239499" offset="1"/>
    </linearGradient>
    <linearGradient id="paint2_linear_1_60" x1="212.8" x2="226.4" y1="154.7" y2="178.2" gradientUnits="userSpaceOnUse">
      <stop stop-color="#54B675" offset="0"/>
      <stop stop-color="#1184AB" offset="1"/>
    </linearGradient>
    <linearGradient id="paint3_linear_1_60" x1="85.94" x2="109.9" y1="137" y2="186.3" gradientUnits="userSpaceOnUse">
      <stop stop-color="#54B675" offset="0"/>
      <stop stop-color="#33A680" offset="1"/>
    </linearGradient>
    <linearGradient id="paint4_linear_1_60" x1="19.48" x2="62.08" y1="126.4" y2="232.7" gradientUnits="userSpaceOnUse">
      <stop stop-color="#60BF78" offset="0"/>
      <stop stop-color="#239499" offset="1"/>
    </linearGradient>
    <linearGradient id="paint5_linear_1_60" x1="96.16" x2="118" y1="166.4" y2="216.8" gradientUnits="userSpaceOnUse">
      <stop stop-color="#33A680" offset="0"/>
      <stop stop-color="#239499" offset="1"/>
    </linearGradient>
    <linearGradient id="paint6_linear_1_60" x1="46.23" x2="64.68" y1="153.7" y2="200" gradientUnits="userSpaceOnUse">
      <stop stop-color="#54B675" offset="0"/>
      <stop stop-color="#33A680" offset="1"/>
    </linearGradient>
    <linearGradient id="paint7_linear_1_60" x1="162.8" x2="208.9" y1="150.9" y2="227.5" gradientUnits="userSpaceOnUse">
      <stop stop-color="#48BD84" offset="0"/>
      <stop stop-color="#1184AB" offset="1"/>
    </linearGradient>
  </defs>
</svg>